<svg width="48" height="49" viewBox="0 0 48 49" fill="none" xmlns="http://www.w3.org/2000/svg">
<rect y="0.666687" width="48" height="48" rx="16" fill="#025A88"/>
<path d="M20.9 31.8167C20.27 31.8167 19.68 31.6667 19.16 31.3667C17.93 30.6567 17.25 29.2267 17.25 27.3467V21.9967C17.25 20.1167 17.93 18.6867 19.16 17.9767C20.39 17.2667 21.96 17.3967 23.6 18.3367L28.23 21.0067C29.86 21.9467 30.76 23.2467 30.76 24.6667C30.76 26.0867 29.86 27.3867 28.23 28.3267L23.6 30.9967C22.66 31.5467 21.74 31.8167 20.9 31.8167ZM20.9 19.0267C20.53 19.0267 20.19 19.1067 19.9 19.2767C19.16 19.7067 18.75 20.6667 18.75 21.9967V27.3367C18.75 28.6567 19.16 29.6267 19.91 30.0567C20.66 30.4867 21.7 30.3567 22.85 29.6967L27.48 27.0267C28.63 26.3667 29.26 25.5267 29.26 24.6667C29.26 23.8067 28.63 22.9667 27.48 22.3067L22.85 19.6367C22.14 19.2267 21.48 19.0267 20.9 19.0267Z" fill="white"/>
</svg>
