<svg width="48" height="49" viewBox="0 0 48 49" fill="none" xmlns="http://www.w3.org/2000/svg">
<rect y="0.666687" width="48" height="48" rx="16" fill="#025A88"/>
<path d="M27.1 31.8167C26.26 31.8167 25.34 31.5467 24.41 31.0067L19.78 28.3367C18.15 27.3867 17.25 26.0867 17.25 24.6667C17.25 23.2467 18.15 21.9467 19.78 21.0067L24.41 18.3367C26.04 17.3967 27.61 17.2667 28.85 17.9767C30.08 18.6867 30.76 20.1167 30.76 21.9967V27.3367C30.76 29.2167 30.08 30.6467 28.85 31.3567C28.32 31.6667 27.73 31.8167 27.1 31.8167ZM27.1 19.0267C26.52 19.0267 25.86 19.2267 25.16 19.6367L20.53 22.3067C19.38 22.9667 18.75 23.8067 18.75 24.6667C18.75 25.5267 19.38 26.3667 20.53 27.0267L25.16 29.6967C26.31 30.3567 27.35 30.4867 28.1 30.0567C28.85 29.6267 29.26 28.6567 29.26 27.3367V21.9967C29.26 20.6767 28.85 19.7067 28.1 19.2767C27.8 19.1067 27.46 19.0267 27.1 19.0267Z" fill="white"/>
</svg>
